<svg xmlns="http://www.w3.org/2000/svg" xmlns:xlink="http://www.w3.org/1999/xlink" width="117.394" height="77" viewBox="0 0 117.394 77">
  <defs>
    <linearGradient id="linear-gradient" x1="-0.103" y1="0.884" x2="1.019" y2="0.17" gradientUnits="objectBoundingBox">
      <stop offset="0" stop-color="#007efb"/>
      <stop offset="1" stop-color="#3c47d8"/>
    </linearGradient>
  </defs>
  <g id="Group_76" data-name="Group 76" transform="translate(-183.729 -336.728)">
    <g id="Group_74" data-name="Group 74" transform="translate(183.729 399.334)">
      <path id="Path_67" data-name="Path 67" d="M183.729,449.346a28.181,28.181,0,0,1,4.311-.3c2.682,0,4.434.495,5.789,1.517a6.24,6.24,0,0,1,2.39,5.319,7.165,7.165,0,0,1-2.338,5.727c-1.487,1.239-3.764,1.831-6.52,1.831a26.844,26.844,0,0,1-3.631-.208Zm3.192,11.537a7.232,7.232,0,0,0,1.115.055c2.9.025,4.8-1.574,4.8-4.954.007-2.937-1.713-4.482-4.461-4.482a6.989,6.989,0,0,0-1.452.122Z" transform="translate(-183.729 -449.042)" fill="#fff"/>
      <path id="Path_68" data-name="Path 68" d="M229.608,457.4h-5.2v3.362h5.816v2.619H221.21V449.239h8.709v2.619h-5.513V454.8h5.2Z" transform="translate(-200.317 -449.129)" fill="#fff"/>
      <path id="Path_69" data-name="Path 69" d="M252.6,449.239h8.634v2.619h-5.438V455.1h5.086v2.593h-5.086v5.685h-3.2Z" transform="translate(-214.208 -449.129)" fill="#fff"/>
      <path id="Path_70" data-name="Path 70" d="M286.912,449.239v14.137h-3.2V449.239Z" transform="translate(-227.981 -449.129)" fill="#fff"/>
      <path id="Path_71" data-name="Path 71" d="M305.729,463.376V449.239h3.724l2.935,5.186a40.3,40.3,0,0,1,2.309,4.849l.055-.007a55.936,55.936,0,0,1-.258-5.906v-4.122h2.934v14.137h-3.348l-3.031-5.444a51.766,51.766,0,0,1-2.455-4.995l-.07.007c.1,1.873.139,3.874.139,6.183v4.249Z" transform="translate(-237.724 -449.129)" fill="#116ef1"/>
      <path id="Path_72" data-name="Path 72" d="M351.383,457.4h-5.2v3.362H352v2.619h-9.012V449.239h8.709v2.619h-5.512V454.8h5.2Z" transform="translate(-254.212 -449.129)" fill="#116ef1"/>
      <path id="Path_73" data-name="Path 73" d="M380.967,463.376l-1.276-2.557c-.512-.991-.863-1.728-1.252-2.545H378.4c-.295.819-.643,1.56-1.1,2.537l-1.169,2.566h-3.641l4.085-7.159-3.94-6.978h3.675l1.238,2.573c.414.86.719,1.559,1.053,2.351h.055c.341-.9.6-1.526.964-2.343l1.188-2.581h3.651l-3.986,6.9,4.2,7.24Z" transform="translate(-267.269 -449.129)" fill="#116ef1"/>
    </g>
    <g id="Group_75" data-name="Group 75" transform="translate(214.711 336.728)">
      <path id="SVGID" d="M278.637,369.215l-25.418-14.673V341.619l-5.436,3.139v12.92L273.2,372.354v12.921l5.436-3.137Zm-8.474-22.568v-6.782l-5.435-3.138v6.78Zm3.038-5.028V348.4l5.436,3.138v-6.78Zm-28.456,4.891-5.435,3.138v12.923l25.418,14.675v12.922l5.435-3.139v-12.92l-25.418-14.676Zm3.038,28.845v6.783l5.436,3.137v-6.78Zm8.472,4.893v6.78l5.435,3.139v-6.782Zm30.854-23.818v-6.782l-5.436-3.138v6.782Zm-5.436,11.032v12.922l5.436-3.139V364.325l-25.418-14.676v-12.92l-5.435,3.138v12.922Zm-36.928,12.922V373.6l-5.435-3.138v6.78Z" transform="translate(-239.31 -336.728)" fill-rule="evenodd" fill="url(#linear-gradient)"/>
    </g>
  </g>
</svg>
